<?xml version="1.0" encoding="UTF-8"?>
<!DOCTYPE svg PUBLIC "-//W3C//DTD SVG 1.1//EN" "http://www.w3.org/Graphics/SVG/1.1/DTD/svg11.dtd">
<svg
        xmlns="http://www.w3.org/2000/svg"
        version="1.1"
        width="500px"
        height="500px"
        viewBox="0 0 321 199"
        preserveAspectRatio="xMidYMid meet"
        style="shape-rendering:geometricPrecision; text-rendering:geometricPrecision; image-rendering:optimizeQuality; fill-rule:evenodd; clip-rule:evenodd"
>

    <g>
        <path style="opacity:1" fill="#c82a2a"
              d="M 1.5,-0.5 C 15.1667,-0.5 28.8333,-0.5 42.5,-0.5C 51.2795,1.48616 58.4462,6.15283 64,13.5C 90.7671,48.7117 117.767,83.7117 145,118.5C 150.909,114.61 155.242,109.61 158,103.5C 131.758,70.0139 105.758,36.3472 80,2.5C 79.5172,1.55198 79.3505,0.551975 79.5,-0.5C 93.1667,-0.5 106.833,-0.5 120.5,-0.5C 128.159,0.917801 134.659,4.58447 140,10.5C 156.101,31.7122 172.434,52.7122 189,73.5C 202.31,61.6896 214.81,49.0229 226.5,35.5C 209.513,34.5005 192.513,34.1672 175.5,34.5C 182.552,25.6566 190.218,17.1566 198.5,9C 203.647,4.76313 209.314,1.59647 215.5,-0.5C 250.167,-0.5 284.833,-0.5 319.5,-0.5C 319.5,0.166667 319.833,0.5 320.5,0.5C 320.5,1.5 320.5,2.5 320.5,3.5C 270.131,54.5349 220.131,105.868 170.5,157.5C 192.826,158.333 215.159,158.833 237.5,159C 249.222,160.937 258.389,166.771 265,176.5C 268.831,182.663 271.998,189.163 274.5,196C 274.257,196.902 273.923,197.735 273.5,198.5C 206.167,198.5 138.833,198.5 71.5,198.5C 71.3398,196.801 71.5065,195.134 72,193.5C 86,179.5 100,165.5 114,151.5C 114.667,150.5 114.667,149.5 114,148.5C 76.9086,99.9861 39.5753,51.6528 2,3.5C 1.50999,2.20677 1.34332,0.873441 1.5,-0.5 Z"/>
    </g>
</svg>